<?xml version="1.0" encoding="utf-8"?>
<!-- Generator: Adobe Illustrator 24.0.1, SVG Export Plug-In . SVG Version: 6.00 Build 0)  -->
<svg version="1.1" id="图层_4" xmlns="http://www.w3.org/2000/svg" xmlns:xlink="http://www.w3.org/1999/xlink" x="0px" y="0px"
	 viewBox="0 0 283.5 283.5" style="enable-background:new 0 0 283.5 283.5;" xml:space="preserve">
<style type="text/css">
	.st0{fill:#FFFFFF;stroke:#000000;stroke-miterlimit:10;}
	.st1{fill:none;stroke:#000000;stroke-miterlimit:10;}
</style>
<g>
	<path class="st0" d="M111.1,66.5l-31.7,98.9c0,0,116.8-19.8,93.1-65.3c-3.5-6.8-7.4-12.3-11.3-16.7
		C138.4,57.8,111.1,66.5,111.1,66.5z"/>
	<path class="st1" d="M179.8,90.6c0,0-82.1-10.3-93.3,18.2s-15.2,54.5-7.1,57.7c8,3.2,110.6-46.2,112-53.6
		c1.4-7.4-34.9,60.9-34.9,60.9l40.7-81.4L179.8,90.6z"/>
	<ellipse class="st1" cx="203.5" cy="81.4" rx="4.8" ry="7.4"/>
	<path class="st1" d="M101.8,95.4c10.9,1.2,24,4.5,28.6,14.1c1.8,3.9,1.6,7.4,1.6,8.7c-0.3,9.7,4.3,26.1,24.4,55.6"/>
	<path class="st1" d="M155.9,173.1c-15,14.1-45,42.4-45,42.4c-0.7-0.4-1.8-1.2-3.1-2.1c-21.7-14.8-24.5-20.3-25.2-24.1
		c-0.2-1.1-0.6-3.7,0.9-5.7c1.5-2.2,4.2-2.6,5.3-2.8c7.2-1.1,13.5,6.2,14.3,7.1c0-1.6,0.2-9.2,5.5-13.3c0.7-0.5,2-1.6,4.1-2.1
		c4.3-1,8.3,1.4,9.2,2.1c7.1,5.6-10.7,40.2-12.6,43.9"/>
</g>
</svg>
